<mxfile host="app.diagrams.net" modified="2024-05-08T00:40:28.308Z" agent="Mozilla/5.0 (Windows NT 10.0; Win64; x64) AppleWebKit/537.36 (KHTML, like Gecko) Chrome/124.0.0.0 Safari/537.36" etag="D6AXRt4xpoP0YSi6V9UK" version="24.3.1" type="device">
  <diagram name="Page-1" id="JQCBOGIlyX9wmz-8teyD">
    <mxGraphModel dx="1750" dy="948" grid="1" gridSize="10" guides="1" tooltips="1" connect="1" arrows="1" fold="1" page="1" pageScale="1" pageWidth="850" pageHeight="1100" math="0" shadow="0">
      <root>
        <mxCell id="0" />
        <mxCell id="1" parent="0" />
        <mxCell id="VF51FX7ayBr1Bw3p5CQS-1" value="Гость" style="shape=umlActor;verticalLabelPosition=bottom;verticalAlign=top;html=1;outlineConnect=0;" vertex="1" parent="1">
          <mxGeometry y="130" width="30" height="60" as="geometry" />
        </mxCell>
        <mxCell id="VF51FX7ayBr1Bw3p5CQS-2" value="Регистрация" style="ellipse;whiteSpace=wrap;html=1;" vertex="1" parent="1">
          <mxGeometry x="80" y="85" width="100" height="60" as="geometry" />
        </mxCell>
        <mxCell id="VF51FX7ayBr1Bw3p5CQS-3" value="Авторизация" style="ellipse;whiteSpace=wrap;html=1;" vertex="1" parent="1">
          <mxGeometry x="80" y="175" width="100" height="60" as="geometry" />
        </mxCell>
        <mxCell id="VF51FX7ayBr1Bw3p5CQS-4" value="Подтверждение&lt;div&gt;Email&lt;/div&gt;" style="ellipse;whiteSpace=wrap;html=1;" vertex="1" parent="1">
          <mxGeometry x="210" width="110" height="70" as="geometry" />
        </mxCell>
        <mxCell id="VF51FX7ayBr1Bw3p5CQS-6" value="" style="endArrow=classic;html=1;rounded=0;entryX=0.02;entryY=0.703;entryDx=0;entryDy=0;entryPerimeter=0;" edge="1" parent="1" target="VF51FX7ayBr1Bw3p5CQS-2">
          <mxGeometry width="50" height="50" relative="1" as="geometry">
            <mxPoint x="30" y="160" as="sourcePoint" />
            <mxPoint x="60" y="340" as="targetPoint" />
          </mxGeometry>
        </mxCell>
        <mxCell id="VF51FX7ayBr1Bw3p5CQS-7" value="" style="endArrow=classic;html=1;rounded=0;entryX=0;entryY=0;entryDx=0;entryDy=0;" edge="1" parent="1" target="VF51FX7ayBr1Bw3p5CQS-3">
          <mxGeometry width="50" height="50" relative="1" as="geometry">
            <mxPoint x="30" y="170" as="sourcePoint" />
            <mxPoint x="100" y="330" as="targetPoint" />
          </mxGeometry>
        </mxCell>
        <mxCell id="VF51FX7ayBr1Bw3p5CQS-8" value="" style="endArrow=classic;html=1;rounded=0;exitX=1;exitY=0;exitDx=0;exitDy=0;entryX=0;entryY=1;entryDx=0;entryDy=0;dashed=1;" edge="1" parent="1" source="VF51FX7ayBr1Bw3p5CQS-2" target="VF51FX7ayBr1Bw3p5CQS-4">
          <mxGeometry width="50" height="50" relative="1" as="geometry">
            <mxPoint x="250" y="340" as="sourcePoint" />
            <mxPoint x="300" y="290" as="targetPoint" />
          </mxGeometry>
        </mxCell>
        <mxCell id="VF51FX7ayBr1Bw3p5CQS-9" value="&amp;lt;&amp;lt;Включает&amp;gt;&amp;gt;" style="text;html=1;align=center;verticalAlign=middle;resizable=0;points=[];autosize=1;strokeColor=none;fillColor=none;" vertex="1" parent="1">
          <mxGeometry x="140" y="62" width="110" height="30" as="geometry" />
        </mxCell>
        <mxCell id="VF51FX7ayBr1Bw3p5CQS-10" value="Администратор" style="shape=umlActor;verticalLabelPosition=bottom;verticalAlign=top;html=1;outlineConnect=0;" vertex="1" parent="1">
          <mxGeometry x="620" y="119" width="30" height="65" as="geometry" />
        </mxCell>
        <mxCell id="VF51FX7ayBr1Bw3p5CQS-11" value="Добавление&lt;div&gt;пользователя&lt;/div&gt;" style="ellipse;whiteSpace=wrap;html=1;" vertex="1" parent="1">
          <mxGeometry x="420" y="80" width="110" height="70" as="geometry" />
        </mxCell>
        <mxCell id="VF51FX7ayBr1Bw3p5CQS-12" value="Удаление&lt;div&gt;пользователя&lt;/div&gt;" style="ellipse;whiteSpace=wrap;html=1;" vertex="1" parent="1">
          <mxGeometry x="580" width="110" height="70" as="geometry" />
        </mxCell>
        <mxCell id="VF51FX7ayBr1Bw3p5CQS-13" value="Редактирование&lt;div&gt;пользователя&lt;/div&gt;" style="ellipse;whiteSpace=wrap;html=1;" vertex="1" parent="1">
          <mxGeometry x="740" y="80" width="110" height="70" as="geometry" />
        </mxCell>
        <mxCell id="VF51FX7ayBr1Bw3p5CQS-14" value="Добавление&lt;div&gt;видеоигры&lt;/div&gt;" style="ellipse;whiteSpace=wrap;html=1;" vertex="1" parent="1">
          <mxGeometry x="420" y="250" width="110" height="70" as="geometry" />
        </mxCell>
        <mxCell id="VF51FX7ayBr1Bw3p5CQS-15" value="Удаление&lt;div&gt;видеоигры&lt;/div&gt;" style="ellipse;whiteSpace=wrap;html=1;" vertex="1" parent="1">
          <mxGeometry x="580" y="250" width="110" height="70" as="geometry" />
        </mxCell>
        <mxCell id="VF51FX7ayBr1Bw3p5CQS-16" value="Редактирование&lt;div&gt;видеоигры&lt;/div&gt;" style="ellipse;whiteSpace=wrap;html=1;" vertex="1" parent="1">
          <mxGeometry x="740" y="250" width="110" height="70" as="geometry" />
        </mxCell>
        <mxCell id="VF51FX7ayBr1Bw3p5CQS-17" value="" style="endArrow=classic;html=1;rounded=0;entryX=1;entryY=0.5;entryDx=0;entryDy=0;" edge="1" parent="1" target="VF51FX7ayBr1Bw3p5CQS-11">
          <mxGeometry width="50" height="50" relative="1" as="geometry">
            <mxPoint x="620" y="150" as="sourcePoint" />
            <mxPoint x="240" y="370" as="targetPoint" />
          </mxGeometry>
        </mxCell>
        <mxCell id="VF51FX7ayBr1Bw3p5CQS-18" value="" style="endArrow=classic;html=1;rounded=0;entryX=0.5;entryY=1;entryDx=0;entryDy=0;" edge="1" parent="1" target="VF51FX7ayBr1Bw3p5CQS-12">
          <mxGeometry width="50" height="50" relative="1" as="geometry">
            <mxPoint x="635" y="110" as="sourcePoint" />
            <mxPoint x="360" y="270" as="targetPoint" />
          </mxGeometry>
        </mxCell>
        <mxCell id="VF51FX7ayBr1Bw3p5CQS-19" value="" style="endArrow=classic;html=1;rounded=0;entryX=0;entryY=0.5;entryDx=0;entryDy=0;" edge="1" parent="1" target="VF51FX7ayBr1Bw3p5CQS-13">
          <mxGeometry width="50" height="50" relative="1" as="geometry">
            <mxPoint x="650" y="150" as="sourcePoint" />
            <mxPoint x="530" y="290" as="targetPoint" />
          </mxGeometry>
        </mxCell>
        <mxCell id="VF51FX7ayBr1Bw3p5CQS-20" value="" style="endArrow=classic;html=1;rounded=0;entryX=1;entryY=0;entryDx=0;entryDy=0;" edge="1" parent="1" target="VF51FX7ayBr1Bw3p5CQS-14">
          <mxGeometry width="50" height="50" relative="1" as="geometry">
            <mxPoint x="620" y="160" as="sourcePoint" />
            <mxPoint x="470" y="270" as="targetPoint" />
          </mxGeometry>
        </mxCell>
        <mxCell id="VF51FX7ayBr1Bw3p5CQS-21" value="" style="endArrow=classic;html=1;rounded=0;entryX=0;entryY=0;entryDx=0;entryDy=0;" edge="1" parent="1" target="VF51FX7ayBr1Bw3p5CQS-16">
          <mxGeometry width="50" height="50" relative="1" as="geometry">
            <mxPoint x="650" y="160" as="sourcePoint" />
            <mxPoint x="380" y="350" as="targetPoint" />
          </mxGeometry>
        </mxCell>
        <mxCell id="VF51FX7ayBr1Bw3p5CQS-22" value="" style="endArrow=classic;html=1;rounded=0;entryX=0.5;entryY=0;entryDx=0;entryDy=0;" edge="1" parent="1" target="VF51FX7ayBr1Bw3p5CQS-15">
          <mxGeometry width="50" height="50" relative="1" as="geometry">
            <mxPoint x="635" y="180" as="sourcePoint" />
            <mxPoint x="320" y="340" as="targetPoint" />
          </mxGeometry>
        </mxCell>
        <mxCell id="VF51FX7ayBr1Bw3p5CQS-23" value="Издатель" style="shape=umlActor;verticalLabelPosition=bottom;verticalAlign=top;html=1;outlineConnect=0;" vertex="1" parent="1">
          <mxGeometry x="620" y="390" width="30" height="60" as="geometry" />
        </mxCell>
        <mxCell id="VF51FX7ayBr1Bw3p5CQS-24" value="" style="endArrow=classic;html=1;rounded=0;entryX=0.5;entryY=1;entryDx=0;entryDy=0;" edge="1" parent="1" target="VF51FX7ayBr1Bw3p5CQS-14">
          <mxGeometry width="50" height="50" relative="1" as="geometry">
            <mxPoint x="610" y="400" as="sourcePoint" />
            <mxPoint x="410" y="330" as="targetPoint" />
          </mxGeometry>
        </mxCell>
        <mxCell id="VF51FX7ayBr1Bw3p5CQS-25" value="" style="endArrow=classic;html=1;rounded=0;entryX=0.5;entryY=1;entryDx=0;entryDy=0;" edge="1" parent="1" target="VF51FX7ayBr1Bw3p5CQS-15">
          <mxGeometry width="50" height="50" relative="1" as="geometry">
            <mxPoint x="635" y="380" as="sourcePoint" />
            <mxPoint x="320" y="470" as="targetPoint" />
          </mxGeometry>
        </mxCell>
        <mxCell id="VF51FX7ayBr1Bw3p5CQS-26" value="" style="endArrow=classic;html=1;rounded=0;entryX=0.5;entryY=1;entryDx=0;entryDy=0;" edge="1" parent="1" target="VF51FX7ayBr1Bw3p5CQS-16">
          <mxGeometry width="50" height="50" relative="1" as="geometry">
            <mxPoint x="660" y="400" as="sourcePoint" />
            <mxPoint x="370" y="460" as="targetPoint" />
          </mxGeometry>
        </mxCell>
        <mxCell id="VF51FX7ayBr1Bw3p5CQS-28" value="Редактирование&lt;div&gt;своего профиля&lt;/div&gt;" style="ellipse;whiteSpace=wrap;html=1;" vertex="1" parent="1">
          <mxGeometry x="420" y="520" width="110" height="70" as="geometry" />
        </mxCell>
        <mxCell id="VF51FX7ayBr1Bw3p5CQS-29" value="Удаление&lt;div&gt;своего профиля&lt;/div&gt;" style="ellipse;whiteSpace=wrap;html=1;" vertex="1" parent="1">
          <mxGeometry x="740" y="520" width="110" height="70" as="geometry" />
        </mxCell>
        <mxCell id="VF51FX7ayBr1Bw3p5CQS-30" value="" style="endArrow=classic;html=1;rounded=0;entryX=1;entryY=0;entryDx=0;entryDy=0;" edge="1" parent="1" target="VF51FX7ayBr1Bw3p5CQS-28">
          <mxGeometry width="50" height="50" relative="1" as="geometry">
            <mxPoint x="620" y="430" as="sourcePoint" />
            <mxPoint x="360" y="480" as="targetPoint" />
          </mxGeometry>
        </mxCell>
        <mxCell id="VF51FX7ayBr1Bw3p5CQS-31" value="" style="endArrow=classic;html=1;rounded=0;entryX=0;entryY=0;entryDx=0;entryDy=0;" edge="1" parent="1" target="VF51FX7ayBr1Bw3p5CQS-29">
          <mxGeometry width="50" height="50" relative="1" as="geometry">
            <mxPoint x="650" y="430" as="sourcePoint" />
            <mxPoint x="370" y="440" as="targetPoint" />
          </mxGeometry>
        </mxCell>
        <mxCell id="VF51FX7ayBr1Bw3p5CQS-32" value="Пользователь" style="shape=umlActor;verticalLabelPosition=bottom;verticalAlign=top;html=1;outlineConnect=0;" vertex="1" parent="1">
          <mxGeometry x="620" y="660" width="30" height="60" as="geometry" />
        </mxCell>
        <mxCell id="VF51FX7ayBr1Bw3p5CQS-34" value="" style="endArrow=classic;html=1;rounded=0;entryX=1;entryY=1;entryDx=0;entryDy=0;" edge="1" parent="1" target="VF51FX7ayBr1Bw3p5CQS-28">
          <mxGeometry width="50" height="50" relative="1" as="geometry">
            <mxPoint x="620" y="670" as="sourcePoint" />
            <mxPoint x="430" y="720" as="targetPoint" />
          </mxGeometry>
        </mxCell>
        <mxCell id="VF51FX7ayBr1Bw3p5CQS-35" value="" style="endArrow=classic;html=1;rounded=0;entryX=0;entryY=1;entryDx=0;entryDy=0;" edge="1" parent="1" target="VF51FX7ayBr1Bw3p5CQS-29">
          <mxGeometry width="50" height="50" relative="1" as="geometry">
            <mxPoint x="650" y="670" as="sourcePoint" />
            <mxPoint x="530" y="740" as="targetPoint" />
          </mxGeometry>
        </mxCell>
        <mxCell id="VF51FX7ayBr1Bw3p5CQS-37" value="Добавление&lt;div&gt;видеоигры&lt;/div&gt;&lt;div&gt;в желаемое&lt;/div&gt;" style="ellipse;whiteSpace=wrap;html=1;" vertex="1" parent="1">
          <mxGeometry x="420" y="655" width="110" height="70" as="geometry" />
        </mxCell>
        <mxCell id="VF51FX7ayBr1Bw3p5CQS-38" value="Добавление&lt;div&gt;видеоигры&lt;/div&gt;&lt;div&gt;в корзину&lt;/div&gt;" style="ellipse;whiteSpace=wrap;html=1;" vertex="1" parent="1">
          <mxGeometry x="420" y="760" width="110" height="70" as="geometry" />
        </mxCell>
        <mxCell id="VF51FX7ayBr1Bw3p5CQS-39" value="Покупка&lt;div&gt;видеоигры&lt;/div&gt;" style="ellipse;whiteSpace=wrap;html=1;" vertex="1" parent="1">
          <mxGeometry x="580" y="800" width="110" height="70" as="geometry" />
        </mxCell>
        <mxCell id="VF51FX7ayBr1Bw3p5CQS-40" value="Оценка&lt;div&gt;&lt;div&gt;видеоигры&lt;/div&gt;&lt;/div&gt;" style="ellipse;whiteSpace=wrap;html=1;" vertex="1" parent="1">
          <mxGeometry x="740" y="760" width="110" height="70" as="geometry" />
        </mxCell>
        <mxCell id="VF51FX7ayBr1Bw3p5CQS-41" value="Добавление&lt;div&gt;видеоигры&lt;/div&gt;&lt;div&gt;в избранное&lt;/div&gt;" style="ellipse;whiteSpace=wrap;html=1;" vertex="1" parent="1">
          <mxGeometry x="740" y="655" width="110" height="70" as="geometry" />
        </mxCell>
        <mxCell id="VF51FX7ayBr1Bw3p5CQS-42" value="Поиск&amp;nbsp;&lt;span style=&quot;background-color: initial;&quot;&gt;видеоигр&lt;/span&gt;&lt;div&gt;&lt;span style=&quot;background-color: initial;&quot;&gt;по категориям и&lt;/span&gt;&lt;/div&gt;&lt;div&gt;&lt;span style=&quot;background-color: initial;&quot;&gt;жанрам&lt;/span&gt;&lt;/div&gt;" style="ellipse;whiteSpace=wrap;html=1;" vertex="1" parent="1">
          <mxGeometry x="580" y="515" width="110" height="70" as="geometry" />
        </mxCell>
        <mxCell id="VF51FX7ayBr1Bw3p5CQS-43" value="" style="endArrow=classic;html=1;rounded=0;entryX=0.5;entryY=0;entryDx=0;entryDy=0;" edge="1" parent="1" target="VF51FX7ayBr1Bw3p5CQS-42">
          <mxGeometry width="50" height="50" relative="1" as="geometry">
            <mxPoint x="635" y="450" as="sourcePoint" />
            <mxPoint x="300" y="710" as="targetPoint" />
          </mxGeometry>
        </mxCell>
        <mxCell id="VF51FX7ayBr1Bw3p5CQS-44" value="" style="endArrow=classic;html=1;rounded=0;entryX=0.5;entryY=1;entryDx=0;entryDy=0;" edge="1" parent="1" target="VF51FX7ayBr1Bw3p5CQS-42">
          <mxGeometry width="50" height="50" relative="1" as="geometry">
            <mxPoint x="635" y="650" as="sourcePoint" />
            <mxPoint x="250" y="770" as="targetPoint" />
          </mxGeometry>
        </mxCell>
        <mxCell id="VF51FX7ayBr1Bw3p5CQS-45" value="" style="endArrow=classic;html=1;rounded=0;entryX=1;entryY=0.5;entryDx=0;entryDy=0;" edge="1" parent="1" target="VF51FX7ayBr1Bw3p5CQS-37">
          <mxGeometry width="50" height="50" relative="1" as="geometry">
            <mxPoint x="620" y="690" as="sourcePoint" />
            <mxPoint x="260" y="820" as="targetPoint" />
          </mxGeometry>
        </mxCell>
        <mxCell id="VF51FX7ayBr1Bw3p5CQS-46" value="" style="endArrow=classic;html=1;rounded=0;entryX=0;entryY=0.5;entryDx=0;entryDy=0;" edge="1" parent="1" target="VF51FX7ayBr1Bw3p5CQS-41">
          <mxGeometry width="50" height="50" relative="1" as="geometry">
            <mxPoint x="650" y="690" as="sourcePoint" />
            <mxPoint x="400" y="760" as="targetPoint" />
          </mxGeometry>
        </mxCell>
        <mxCell id="VF51FX7ayBr1Bw3p5CQS-47" value="" style="endArrow=classic;html=1;rounded=0;entryX=1;entryY=0;entryDx=0;entryDy=0;" edge="1" parent="1" target="VF51FX7ayBr1Bw3p5CQS-38">
          <mxGeometry width="50" height="50" relative="1" as="geometry">
            <mxPoint x="620" y="700" as="sourcePoint" />
            <mxPoint x="330" y="750" as="targetPoint" />
          </mxGeometry>
        </mxCell>
        <mxCell id="VF51FX7ayBr1Bw3p5CQS-48" value="" style="endArrow=classic;html=1;rounded=0;entryX=0;entryY=0;entryDx=0;entryDy=0;" edge="1" parent="1" target="VF51FX7ayBr1Bw3p5CQS-40">
          <mxGeometry width="50" height="50" relative="1" as="geometry">
            <mxPoint x="650" y="700" as="sourcePoint" />
            <mxPoint x="300" y="810" as="targetPoint" />
          </mxGeometry>
        </mxCell>
        <mxCell id="VF51FX7ayBr1Bw3p5CQS-49" value="" style="endArrow=classic;html=1;rounded=0;entryX=0.5;entryY=0;entryDx=0;entryDy=0;" edge="1" parent="1" target="VF51FX7ayBr1Bw3p5CQS-39">
          <mxGeometry width="50" height="50" relative="1" as="geometry">
            <mxPoint x="635" y="720" as="sourcePoint" />
            <mxPoint x="260" y="830" as="targetPoint" />
          </mxGeometry>
        </mxCell>
      </root>
    </mxGraphModel>
  </diagram>
</mxfile>
